<svg width="450" height="750" viewBox="0 0 450 750" fill="none" xmlns="http://www.w3.org/2000/svg">


    <path id="1" fill-rule="evenodd"
        d="M1.89111 311.677C3.36063 287.291 23.8659 282.614 37.059 283.608C51.0378 284.253 60.1083 287.784 69.9796 292.808C74.617 294.76 75.1441 304.673 71.2653 306.426L71.2244 317.252C75.633 318.581 74.632 328.666 70.9262 330.591C58.8023 336.198 49.0835 345.786 32.8533 345.718C17.3886 344.492 1.92517 333.409 1.89111 311.677ZM5.85569 311.997C7.16314 290.288 25.4184 286.124 37.1638 287.009C49.6091 287.583 57.6826 290.727 66.4724 295.2C70.3457 297.064 71.0703 305.07 67.6164 306.631L67.7308 317.52C71.6573 318.704 70.614 327.123 67.3155 328.837C56.5208 333.828 47.8698 342.365 33.4185 342.305C19.6521 341.211 5.88443 331.345 5.85569 311.997Z M40.4745 296.375C40.6339 299.003 43.1793 299.003 43.34 296.019C44.1286 294.743 46.9587 295.671 46.3172 297.476C42.5583 304.083 43.2297 310.201 39.3918 315.243C41.3162 317.113 41.6213 323.841 42.2233 329.473C41.9427 331.663 47.1875 330.514 46.5311 334.189C45.2222 337.274 40.6353 331.907 34.7109 334.303C35.2311 332.59 36.0183 329.983 37.861 329.466L37.8638 319.35C35.8209 317.798 31.7528 318.507 31.8182 315.124C31.8931 311.819 35.5989 313.009 37.2822 311.376C39.0854 308.669 39.1453 305.551 39.3851 300.157C38.9057 298.446 37.7085 299.4 37.1079 297.57C37.0493 295.72 39.0309 294.285 40.4745 296.375Z"
        fill="black" />

    <path id="2" fill-rule="evenodd"
        d="M52.7819 223.14C61.851 225.863 68.278 231.488 76.1717 235.388C80.775 239.656 79.5506 251.895 74.0607 255.919C75.8748 271.676 73.4969 277.351 59.5344 280.823C47.5303 283.032 32.4918 283.534 21.7598 282.112C8.22222 277.998 -0.618057 262.725 0.0343101 252.353C0.425185 237.02 9.03802 225.317 22.4449 221.87C30.5674 220.509 43.7794 220.329 52.7819 223.14ZM50.8521 226.815C58.2283 229.305 63.5235 234.145 71.7836 237.374C77.2109 240.986 74.2922 251.53 70.453 255.088C71.9456 268.952 69.806 274.81 57.1456 277.45C46.2774 279.392 33.5556 280.59 23.9077 278.487C10.7011 274.104 5.15804 261.975 4.79032 252.302C5.13489 238.812 12.7127 228.514 24.5097 225.48C31.6571 224.283 42.9297 223.905 50.8521 226.815Z M41.5964 232.727C41.7844 235.62 46.0131 235.618 46.2011 232.334C46.4149 230.647 49.0352 231.194 48.8936 232.989C44.4633 240.26 45.433 248.047 40.5559 253.813C42.8235 255.871 43.1545 263.514 43.864 269.71C43.5331 272.119 46.9406 269.627 47.6025 273.482C45.3172 275.392 42.3986 272.577 34.0854 273.981C34.6983 272.097 36.0942 270.737 38.2665 270.167L38.622 257.625C36.2127 255.917 31.1096 256.507 31.3929 253.354C30.9679 249.72 35.6434 252.26 37.6292 250.464C39.7538 247.486 40.7452 242.538 41.0285 236.603C40.462 234.721 38.336 236.055 37.6292 234.043C37.5583 232.007 39.8967 230.427 41.5964 232.727Z"
        fill="black" />


    <path id="3" fill-rule="evenodd" clip-rule="evenodd"
        d="M54.3659 153.394C63.4336 156.437 69.8606 162.725 77.7543 167.086C82.3576 171.856 81.1346 185.537 75.6433 190.036C77.4574 207.649 75.0795 213.994 61.1183 217.876C49.1143 220.343 34.0745 220.905 23.3438 219.315C9.80485 214.716 0.965931 197.646 1.6183 186.05C2.00917 168.911 10.6207 155.828 24.0289 151.974C32.1514 150.454 45.3634 150.251 54.3659 153.394ZM52.4347 157.502C59.8123 160.284 65.1061 165.696 73.3675 169.306C78.7948 173.343 75.8748 185.129 72.0356 189.106C73.5282 204.605 71.39 211.153 58.7282 214.104C47.8613 216.275 35.1382 217.613 25.4903 215.263C12.285 210.365 6.74063 196.804 6.37427 185.993C6.71884 170.911 14.2966 159.4 26.0936 156.009C33.241 154.671 44.5137 154.248 52.4347 157.502Z M43.1804 164.112C43.3684 167.344 47.5958 167.343 47.7851 163.672C47.9976 161.786 50.6193 162.398 50.4776 164.405C46.0473 172.532 47.017 181.238 42.1399 187.682C44.4075 189.983 44.7385 198.525 45.4467 205.453C45.1171 208.146 48.5246 205.359 49.1852 209.669C46.9012 211.805 43.9826 208.658 35.668 210.225C36.2809 208.121 37.6769 206.601 39.8492 205.964L40.2046 191.943C37.7954 190.033 32.6936 190.695 32.9768 187.169C32.5519 183.106 37.2274 185.947 39.2118 183.939C41.3377 180.611 42.3292 175.079 42.6125 168.445C42.0459 166.34 39.9199 167.832 39.2118 165.582C39.1423 163.306 41.4794 161.541 43.1804 164.112Z"
        fill="black" />


    <path id="4" fill-rule="evenodd" clip-rule="evenodd"
        d="M32.9482 122.161C37.6237 112.097 55.2443 107.108 68.5503 112.013C79.2496 116.157 90.4883 120.301 98.4909 126.729C105.053 136.792 97.8617 152.183 88.2397 153.873C74.8451 154.803 62.2568 154.718 49.9396 150.829C38.4313 145.501 29.0817 133.579 32.9482 122.161ZM37.0898 123.404C41.1892 114.58 56.6375 110.205 68.3026 114.505C77.6835 118.139 87.5372 121.773 94.5511 127.408C100.305 136.229 94.0009 149.722 85.5651 151.206C73.8212 152.021 62.7855 151.947 51.9867 148.536C41.8975 143.865 33.7 133.414 37.0898 123.404Z M48.0397 143.14C45.6986 127.547 51.0469 123.282 61.2368 120.755L61.8075 117.921C46.6478 118.775 41.5528 129.13 45.0026 142.683L48.0397 143.14Z M87.5982 135.948C88.6565 142.994 86.2404 144.921 81.6357 146.062"
        fill="black" />


    <path id="5" fill-rule="evenodd" clip-rule="evenodd"
        d="M52.7615 78.7833C59.202 70.0231 77.4573 68.2845 89.656 75.2034C99.4279 80.9589 109.731 86.8065 116.43 94.2687C121.048 104.94 111.155 118.327 101.377 118.297C88.0229 116.902 75.6484 114.679 64.2381 108.892C53.886 101.876 46.8657 88.9657 52.7615 78.7833ZM56.6089 80.6671C62.2568 72.9864 78.2609 71.4616 88.9561 77.529C97.524 82.5746 106.556 87.7006 112.43 94.2439C116.479 103.599 107.804 115.337 99.2319 115.31C87.5247 114.086 76.6756 112.137 66.6723 107.063C57.5964 100.912 51.4417 89.5938 56.6089 80.6671Z M63.7768 101.268C64.3243 86.0647 70.3672 82.9266 80.8595 82.2604L81.9395 79.6667C66.863 77.8986 59.9539 86.8632 60.8705 100.318L63.7768 101.268Z M104.024 101.17C103.777 108.039 101.046 109.457 96.3064 109.757"
        fill="black" />


    <path id="6" fill-rule="evenodd" clip-rule="evenodd"
        d="M84.5669 40.3089C92.9455 32.9826 111.525 35.2255 122.132 44.777C130.581 52.6396 139.54 60.7101 144.545 69.6049C146.76 81.2435 133.906 92.4297 124.169 90.2695C111.175 85.9702 99.3426 81.0616 89.2685 72.8092C80.5222 63.5636 76.4157 49.1709 84.5669 40.3089ZM87.9799 43.0231C95.3261 36.6015 111.615 38.5668 120.914 46.942C128.322 53.8349 136.176 60.9097 140.566 68.7097C142.506 78.9133 131.236 88.7199 122.701 86.8254C111.309 83.0565 100.935 78.7526 92.1026 71.5172C84.4349 63.4125 80.8339 50.7935 87.9799 43.0231Z M91.5018 62.7687C95.4487 47.7392 102.174 45.9274 112.777 47.549L114.433 45.201C99.8055 40.1542 90.9162 47.5833 88.8188 61.1884L91.5018 62.7687Z M130.639 73.78C128.855 80.5702 125.818 81.3887 121.027 80.6564"
        fill="black" />


    <path id="7" fill-rule="evenodd" clip-rule="evenodd"
        d="M122.592 33.0237C117.926 11.5135 166.815 -0.067275 169.438 19.7871C171.285 34.4776 170.743 42.8516 169.989 55.7363C168.627 70.6784 151.808 74.6387 143.593 67.1694C135.573 55.7871 127.842 46.5118 122.592 33.0237ZM125.63 33.9367C121.557 15.1619 164.229 5.054 166.52 22.3831C168.131 35.2052 167.657 42.515 166.999 53.7616C165.812 66.8033 151.131 70.2604 143.961 63.7395C136.96 53.8052 130.213 45.7087 125.63 33.9367Z M135.862 37.2403C143.029 23.5868 149.694 23.4226 159.162 27.5104L161.247 25.623C148.84 17.2572 138.856 22.3608 133.739 35.0706L135.862 37.2403Z"
        fill="black" />


    <path id="8" fill-rule="evenodd" clip-rule="evenodd"
        d="M170.028 19.0418C170.791 -5.34549 225.969 -4.6345 223.471 17.4213C221.522 33.7158 218.711 42.5753 214.473 56.2289C209.038 71.9293 190.062 71.6588 183.3 61.4139C177.788 47.0151 172.026 34.9583 170.028 19.0418ZM173.021 20.8418C173.687 -0.443998 221.848 0.17725 219.669 19.4292C217.968 33.6509 215.513 41.3823 211.814 53.2997C207.071 67.004 190.508 66.7678 184.606 57.8257C179.796 45.2576 174.766 34.735 173.021 20.8418Z M183.043 27.1492C194.318 14.3968 201.465 16.0161 210.464 22.961L213.188 21.4929C202.2 9.15627 190.2 11.9555 181.359 24.2448L183.043 27.1492Z"
        fill="black" />


    <path id="9" fill-rule="evenodd" clip-rule="evenodd"
        d="M224.566 16.3171C226.947 -7.87313 281.953 -3.44509 277.998 18.3108C274.971 34.3773 271.579 42.9935 266.443 56.2797C259.978 71.5206 241.064 69.9722 234.996 59.3329C230.453 44.647 225.503 32.2751 224.566 16.3171ZM227.435 18.3096C229.512 -2.80494 277.524 1.05964 274.07 20.0482C271.429 34.0714 268.468 41.5915 263.985 53.1887C258.342 66.4915 241.833 65.1403 236.538 55.8533C232.572 43.036 228.252 32.2371 227.435 18.3096Z M237.015 25.2545C249.111 13.3384 256.133 15.4289 264.651 22.9396L267.466 21.664C257.322 8.65889 245.164 10.6337 235.527 22.2533L237.015 25.2545Z"
        fill="black" />


    <path id="10" fill-rule="evenodd" clip-rule="evenodd"
        d="M325.356 34.519C331.548 13.3974 282.941 -1.67687 278.928 17.9399C276.053 32.4627 276.027 40.8545 275.906 53.7627C276.258 68.7662 292.982 73.9288 301.795 67.0678C310.68 56.2914 319.127 47.5963 325.356 34.519ZM322.224 35.2112C327.628 16.7754 285.203 3.61908 281.699 20.7403C279.191 33.4159 279.168 40.7411 279.063 52.0075C279.368 65.1036 293.965 69.6083 301.659 63.6213C309.414 54.215 316.786 46.6254 322.224 35.2112Z M311.658 37.7693C305.354 23.6339 298.628 22.989 288.782 26.3847L286.804 24.352C299.914 16.9005 309.653 22.7103 313.953 35.7579L311.658 37.7693Z"
        fill="black" />


    <path id="11" fill-rule="evenodd" clip-rule="evenodd"
        d="M363.518 38.4333C355.139 31.1069 336.561 33.351 325.953 42.9026C317.504 50.7651 308.546 58.8344 303.54 67.7304C301.325 79.369 314.181 90.5552 323.916 88.395C336.91 84.0958 348.742 79.1871 358.816 70.9336C367.563 61.6879 371.669 47.2952 363.518 38.4333ZM360.105 41.1486C352.759 34.7258 336.47 36.6923 327.171 45.0675C319.763 51.9593 311.909 59.0352 307.521 66.8341C305.58 77.0376 316.849 86.8455 325.385 84.951C336.777 81.1821 347.15 76.8781 355.984 69.6427C363.65 61.5368 367.251 48.9179 360.105 41.1486Z M357.573 63.2375C353.627 48.2079 346.901 46.3961 336.299 48.0178L334.643 45.6686C349.27 40.6229 358.159 48.0509 360.256 61.6571L357.573 63.2375Z M317.448 71.9055C319.231 78.6957 322.27 79.5142 327.06 78.7819"
        fill="black" />


    <path id="12" fill-rule="evenodd" clip-rule="evenodd"
        d="M395.324 76.9078C388.883 68.1476 370.627 66.409 358.429 73.3291C348.657 79.0846 338.354 84.931 331.655 92.3944C327.038 103.065 336.931 116.453 346.709 116.421C360.063 115.026 372.436 112.805 383.846 107.017C394.198 100 401.219 87.0902 395.324 76.9078ZM391.476 78.7917C385.828 71.1109 369.824 69.5873 359.128 75.6535C350.562 80.6991 341.528 85.8263 335.656 92.3696C331.607 101.724 340.281 113.462 348.854 113.434C360.56 112.212 371.409 110.263 381.412 105.189C390.488 99.0369 396.644 87.7195 391.476 78.7917Z M384.311 99.3935C383.763 84.1904 377.719 81.051 367.227 80.3849L366.148 77.7924C381.225 76.0231 388.132 84.9888 387.217 98.4427L384.311 99.3935Z M344.063 99.2954C344.31 106.163 347.04 107.582 351.781 107.883"
        fill="black" />


    <path id="13" fill-rule="evenodd" clip-rule="evenodd"
        d="M415.138 120.287C410.464 110.222 392.843 105.233 379.536 110.138C368.838 114.282 357.598 118.426 349.597 124.853C343.034 134.917 350.226 150.307 359.847 151.999C373.243 152.929 385.831 152.844 398.147 148.954C409.656 143.627 419.006 131.704 415.138 120.287ZM410.997 121.528C406.899 112.704 391.45 108.331 379.784 112.631C370.404 116.264 360.551 119.899 353.535 125.532C347.781 134.355 354.087 147.848 362.521 149.33C374.265 150.146 385.302 150.073 396.101 146.662C406.19 141.991 414.388 131.538 410.997 121.528Z M400.045 141.266C402.388 125.672 397.039 121.408 386.848 118.88L386.279 116.047C401.438 116.9 406.532 127.256 403.082 140.809L400.045 141.266Z M360.487 134.074C359.429 141.119 361.845 143.046 366.449 144.188"
        fill="black" />


    <path id="14" fill-rule="evenodd" clip-rule="evenodd"
        d="M385.795 153.837C376.726 156.86 370.299 163.107 362.406 167.436C357.802 172.177 359.027 185.767 364.517 190.235C362.703 207.731 365.08 214.033 379.043 217.89C391.047 220.341 406.086 220.899 416.818 219.32C430.355 214.751 439.195 197.794 438.543 186.275C438.152 169.249 429.539 156.255 416.132 152.427C408.01 150.915 394.798 150.716 385.795 153.837ZM387.725 157.918C380.349 160.682 375.055 166.057 366.794 169.643C361.366 173.654 364.285 185.361 368.124 189.312C366.632 204.707 368.771 211.212 381.432 214.143C392.3 216.301 405.022 217.631 414.67 215.295C427.876 210.429 433.421 196.959 433.787 186.22C433.442 171.239 425.865 159.803 414.068 156.436C406.92 155.106 395.648 154.686 387.725 157.918Z M396.98 164.484C396.792 167.695 392.563 167.694 392.375 164.047C392.161 162.173 389.541 162.781 389.682 164.775C394.113 172.848 393.143 181.495 398.02 187.897C395.752 190.182 395.421 198.67 394.712 205.55C395.043 208.225 391.635 205.457 390.973 209.738C393.259 211.86 396.177 208.734 404.492 210.292C403.878 208.2 402.482 206.69 400.309 206.057L399.954 192.13C402.363 190.233 407.466 190.89 407.183 187.388C407.608 183.352 402.932 186.174 400.947 184.179C398.822 180.873 397.831 175.378 397.547 168.789C398.114 166.697 400.24 168.179 400.947 165.944C401.018 163.684 398.681 161.93 396.98 164.484Z"
        fill="black" />


    <path id="15" fill-rule="evenodd" clip-rule="evenodd"
        d="M395.455 223.14C386.387 225.862 379.96 231.486 372.067 235.388C367.463 239.655 368.686 251.895 374.178 255.917C372.364 271.675 374.742 277.35 388.703 280.822C400.707 283.031 415.747 283.533 426.477 282.111C440.016 277.997 448.857 262.725 448.203 252.352C447.812 237.02 439.2 225.316 425.792 221.869C417.67 220.508 404.458 220.327 395.455 223.14ZM397.386 226.815C390.009 229.304 384.715 234.145 376.454 237.374C371.026 240.985 373.946 251.529 377.785 255.087C376.293 268.951 378.431 274.809 391.093 277.449C401.961 279.392 414.683 280.588 424.331 278.486C437.536 274.103 443.08 261.974 443.448 252.302C443.102 238.81 435.524 228.512 423.729 225.479C416.58 224.282 405.307 223.904 397.386 226.815Z M406.642 232.727C406.454 235.618 402.226 235.617 402.038 232.333C401.824 230.646 399.203 231.193 399.344 232.989C403.776 240.259 402.805 248.046 407.683 253.812C405.415 255.87 405.085 263.512 404.375 269.71C404.705 272.118 401.297 269.626 400.637 273.481C402.921 275.392 405.839 272.577 414.154 273.979C413.541 272.096 412.145 270.736 409.973 270.167L409.617 257.623C412.027 255.916 417.128 256.506 416.847 253.354C417.27 249.718 412.595 252.259 410.61 250.464C408.484 247.486 407.494 242.537 407.209 236.603C407.776 234.72 409.903 236.054 410.61 234.042C410.68 232.005 408.343 230.426 406.642 232.727Z"
        fill="black" />


    <path id="16" fill-rule="evenodd" clip-rule="evenodd"
        d="M446.346 311.677C444.877 287.291 424.373 282.614 411.178 283.608C397.2 284.253 388.131 287.785 378.259 292.809C373.622 294.76 373.093 304.675 376.972 306.427L377.014 317.252C372.604 318.581 373.605 328.666 377.311 330.593C389.437 336.198 399.154 345.786 415.385 345.719C430.849 344.492 446.314 333.408 446.346 311.677ZM442.383 311.997C441.076 290.289 422.82 286.124 411.074 287.01C398.63 287.583 390.555 290.727 381.766 295.2C377.892 297.064 377.169 305.072 380.622 306.631L380.507 317.52C376.581 318.704 377.623 327.123 380.923 328.837C391.718 333.829 400.369 342.365 414.819 342.305C428.587 341.212 442.353 331.345 442.383 311.997Z M407.764 296.375C407.605 299.004 405.058 299.004 404.899 296.019C404.109 294.744 401.28 295.671 401.922 297.476C405.679 304.084 405.008 310.201 408.847 315.243C406.923 317.114 406.616 323.842 406.014 329.473C406.295 331.663 401.052 330.514 401.707 334.189C403.015 337.276 407.604 331.907 413.528 334.303C413.008 332.591 412.219 329.985 410.377 329.466L410.374 319.35C412.418 317.798 416.486 318.507 416.419 315.124C416.345 311.819 412.64 313.009 410.957 311.376C409.154 308.67 409.094 305.551 408.853 300.157C409.333 298.446 410.53 299.4 411.13 297.57C411.19 295.72 409.207 294.285 407.764 296.375Z"
        fill="black" />


    <path id="17" fill-rule="evenodd" clip-rule="evenodd"
        d="M448.111 438.323C446.641 462.708 426.137 467.385 412.943 466.39C398.964 465.745 389.895 462.215 380.024 457.191C375.386 455.238 374.858 445.325 378.737 443.573L378.777 432.747C374.369 431.418 375.37 421.332 379.076 419.407C391.201 413.801 400.918 404.212 417.15 404.281C432.613 405.507 448.078 416.59 448.111 438.323ZM444.147 438.001C442.839 459.711 424.583 463.875 412.838 462.99C400.393 462.416 392.319 459.272 383.531 454.799C379.656 452.935 378.933 444.928 382.385 443.368L382.271 432.479C378.346 431.295 379.388 422.876 382.688 421.162C393.481 416.171 402.133 407.634 416.583 407.694C430.35 408.788 444.117 418.654 444.147 438.001Z M409.526 453.623C409.368 450.995 406.821 450.995 406.662 453.98C405.872 455.255 403.042 454.327 403.685 452.522C407.443 445.915 406.771 439.798 410.609 434.755C408.686 432.885 408.38 426.157 407.778 420.525C408.058 418.335 402.815 419.484 403.47 415.808C404.779 412.723 409.366 418.09 415.291 415.696C414.771 417.408 413.983 420.014 412.14 420.532L412.137 430.648C414.18 432.2 418.249 431.491 418.183 434.875C418.108 438.179 414.403 436.989 412.72 438.621C410.917 441.329 410.857 444.447 410.616 449.841C411.097 451.552 412.294 450.598 412.893 452.427C412.953 454.278 410.97 455.713 409.526 453.623Z"
        fill="black" />


    <path id="18" fill-rule="evenodd" clip-rule="evenodd"
        d="M397.219 526.859C388.152 524.137 381.725 518.511 373.831 514.611C369.228 510.343 370.451 498.104 375.942 494.08C374.128 478.323 376.506 472.648 390.467 469.175C402.471 466.967 417.511 466.465 428.241 467.888C441.78 472.001 450.619 487.273 449.967 497.646C449.576 512.979 440.965 524.681 427.556 528.129C419.434 529.491 406.222 529.67 397.219 526.859ZM399.151 523.184C391.773 520.695 386.479 515.854 378.218 512.624C372.79 509.013 375.71 498.469 379.55 494.912C378.057 481.047 380.195 475.188 392.857 472.549C403.724 470.607 416.447 469.409 426.095 471.512C439.3 475.895 444.845 488.025 445.211 497.697C444.866 511.188 437.289 521.485 425.492 524.519C418.344 525.716 407.072 526.095 399.151 523.184Z M408.403 517.271C408.215 514.378 403.988 514.379 403.799 517.664C403.585 519.351 400.965 518.804 401.106 517.008C405.536 509.739 404.567 501.951 409.444 496.186C407.176 494.127 406.845 486.484 406.137 480.288C406.467 477.879 403.059 480.371 402.399 476.516C404.683 474.606 407.601 477.42 415.916 476.017C415.303 477.901 413.907 479.26 411.735 479.831L411.379 492.373C413.788 494.081 418.89 493.49 418.607 496.644C419.032 500.278 414.356 497.738 412.372 499.534C410.246 502.512 409.255 507.459 408.971 513.394C409.538 515.277 411.664 513.942 412.372 515.956C412.441 517.991 410.104 519.57 408.403 517.271Z"
        fill="black" />


    <path id="19" fill-rule="evenodd" clip-rule="evenodd"
        d="M387.554 596.161C378.487 593.139 372.06 586.893 364.166 582.562C359.563 577.822 360.787 564.231 366.277 559.764C364.463 542.267 366.841 535.965 380.803 532.109C392.807 529.657 407.846 529.1 418.578 530.68C432.115 535.247 440.956 552.205 440.303 563.723C439.911 580.749 431.3 593.743 417.893 597.573C409.77 599.083 396.557 599.283 387.554 596.161ZM389.486 592.081C382.109 589.316 376.814 583.941 368.554 580.355C363.127 576.344 366.045 564.637 369.885 560.687C368.392 545.291 370.532 538.787 383.192 535.855C394.06 533.697 406.782 532.368 416.43 534.703C429.637 539.571 435.18 553.039 435.547 563.78C435.203 578.761 427.625 590.195 415.828 593.564C408.681 594.892 397.408 595.313 389.486 592.081Z M398.741 585.516C398.555 582.304 394.326 582.305 394.138 585.953C393.924 587.826 391.303 587.219 391.446 585.225C395.876 577.152 394.905 568.504 399.783 562.103C397.514 559.817 397.185 551.331 396.475 544.45C396.806 541.775 393.399 544.542 392.737 540.262C395.021 538.141 397.941 541.266 406.254 539.709C405.641 541.8 404.245 543.309 402.073 543.942L401.717 557.871C404.126 559.766 409.23 559.111 408.946 562.612C409.371 566.648 404.694 563.827 402.71 565.821C400.584 569.128 399.594 574.622 399.311 581.212C399.876 583.302 402.003 581.82 402.71 584.056C402.781 586.316 400.442 588.07 398.741 585.516Z"
        fill="black" />


    <path id="20" fill-rule="evenodd" clip-rule="evenodd"
        d="M416.9 629.712C412.226 639.776 394.605 644.765 381.298 639.86C370.598 635.717 359.36 631.572 351.359 625.145C344.795 615.082 351.988 599.691 361.608 598.001C375.004 597.07 387.593 597.155 399.909 601.044C411.417 606.371 420.768 618.295 416.9 629.712ZM412.758 628.47C408.66 637.294 393.212 641.669 381.545 637.367C372.166 633.734 362.312 630.101 355.297 624.466C349.543 615.644 355.849 602.15 364.283 600.668C376.027 599.853 387.064 599.926 397.861 603.337C407.952 608.007 416.15 618.46 412.758 628.47Z M401.807 608.733C404.148 624.326 398.801 628.591 388.61 631.119L388.039 633.951C403.2 633.098 408.294 622.742 404.844 609.19L401.807 608.733Z M362.249 615.924C361.19 608.88 363.607 606.952 368.211 605.81"
        fill="black" />


    <path id="21" fill-rule="evenodd" clip-rule="evenodd"
        d="M397.086 673.092C390.644 681.852 372.389 683.591 360.19 676.671C350.418 670.916 340.115 665.069 333.416 657.607C328.799 646.935 338.692 633.548 348.471 633.578C361.823 634.973 374.198 637.195 385.608 642.983C395.96 649.999 402.981 662.91 397.086 673.092ZM393.237 671.208C387.589 678.889 371.585 680.414 360.89 674.346C352.324 669.301 343.29 664.175 337.417 657.631C333.368 648.276 342.042 636.538 350.614 636.565C362.322 637.789 373.171 639.738 383.174 644.812C392.25 650.963 398.406 662.282 393.237 671.208Z M386.072 650.606C385.525 665.809 379.481 668.948 368.988 669.615L367.91 672.207C382.986 673.976 389.894 665.012 388.977 651.557L386.072 650.606Z M345.822 650.703C346.07 643.835 348.801 642.416 353.542 642.115"
        fill="black" />


    <path id="22" fill-rule="evenodd" clip-rule="evenodd"
        d="M365.282 711.566C356.904 718.892 338.326 716.649 327.717 707.096C319.268 699.235 310.309 691.165 305.304 682.269C303.09 670.63 315.945 659.445 325.68 661.604C338.674 665.903 350.506 670.813 360.581 679.065C369.327 688.311 373.433 702.704 365.282 711.566ZM361.869 708.851C354.523 715.273 338.234 713.307 328.935 704.933C321.527 698.04 313.673 690.965 309.285 683.165C307.344 672.961 318.613 663.155 327.148 665.049C338.541 668.817 348.914 673.122 357.748 680.356C365.414 688.462 369.015 701.081 361.869 708.851Z M359.338 686.76C355.389 701.79 348.665 703.602 338.061 701.98L336.407 704.329C351.034 709.375 359.922 701.947 362.019 688.341L359.338 686.76Z M319.21 678.095C320.992 671.304 324.031 670.485 328.821 671.219"
        fill="black" />


    <path id="23" fill-rule="evenodd" clip-rule="evenodd"
        d="M327.121 715.482C333.312 736.602 284.705 751.677 280.693 732.06C277.818 717.538 277.792 709.145 277.671 696.237C278.022 681.234 294.745 676.072 303.56 682.932C312.445 693.708 320.892 702.405 327.121 715.482ZM323.989 714.789C329.391 733.224 286.967 746.382 283.463 729.259C280.956 716.584 280.933 709.26 280.826 697.992C281.133 684.896 295.73 680.393 303.424 686.38C311.178 695.785 318.55 703.375 323.989 714.789Z M313.422 712.23C307.118 726.367 300.393 727.011 290.545 723.615L288.568 725.648C301.678 733.099 311.417 727.289 315.717 714.242L313.422 712.23Z"
        fill="black" />


    <path id="24" fill-rule="evenodd" clip-rule="evenodd"
        d="M226.329 733.682C228.708 757.873 283.715 753.446 279.759 731.689C276.734 715.623 273.341 707.007 268.205 693.72C261.74 678.48 242.824 680.027 236.758 690.668C232.215 705.352 227.266 717.725 226.329 733.682ZM229.197 731.691C231.274 752.804 279.285 748.941 275.832 729.951C273.191 715.928 270.229 708.408 265.747 696.811C260.104 683.508 243.595 684.86 238.3 694.146C234.334 706.964 230.014 717.762 229.197 731.691Z M238.777 724.745C250.873 736.661 257.895 734.57 266.413 727.06L269.228 728.337C259.083 741.341 246.926 739.367 237.29 727.746L238.777 724.745Z"
        fill="black" />


    <path id="25" fill-rule="evenodd" clip-rule="evenodd"
        d="M171.791 730.957C172.553 755.345 227.732 754.633 225.233 732.578C223.284 716.283 220.474 707.424 216.236 693.77C210.8 678.07 191.825 678.341 185.063 688.585C179.551 702.985 173.787 715.041 171.791 730.957ZM174.784 729.158C175.45 750.443 223.61 749.823 221.43 730.571C219.729 716.348 217.276 708.617 213.576 696.7C208.834 682.995 192.271 683.231 186.369 692.174C181.557 704.741 176.529 715.265 174.784 729.158Z M184.805 722.85C196.08 735.602 203.226 733.984 212.226 727.038L214.95 728.506C203.96 740.844 191.962 738.045 183.122 725.756L184.805 722.85Z"
        fill="black" />


    <path id="26" fill-rule="evenodd" clip-rule="evenodd"
        d="M124.354 716.975C119.687 738.485 168.576 750.067 171.201 730.213C173.048 715.522 172.506 707.148 171.751 694.262C170.389 679.32 153.571 675.36 145.355 682.83C137.335 694.211 129.605 703.488 124.354 716.975ZM127.393 716.062C123.319 734.837 165.991 744.945 168.281 727.615C169.893 714.793 169.419 707.485 168.762 696.237C167.573 683.195 152.894 679.739 145.723 686.259C138.723 696.193 131.976 704.29 127.393 716.062Z M137.625 712.759C144.79 726.412 151.456 726.576 160.925 722.489L163.01 724.376C150.603 732.742 140.618 727.638 135.501 714.928L137.625 712.759Z"
        fill="black" />


    <path id="27" fill-rule="evenodd" clip-rule="evenodd"
        d="M86.3291 709.692C94.7077 717.018 113.286 714.774 123.894 705.223C132.343 697.36 141.302 689.291 146.307 680.395C148.522 668.756 135.668 657.57 125.932 659.73C112.937 664.029 101.105 668.938 91.0307 677.192C82.2844 686.436 78.1779 700.83 86.3291 709.692ZM89.7421 706.977C97.0884 713.399 113.377 711.433 122.676 703.058C130.084 696.166 137.938 689.09 142.326 681.291C144.267 671.088 132.999 661.28 124.463 663.174C113.071 666.943 102.697 671.247 93.8648 678.482C86.1971 686.588 82.5961 699.207 89.7421 706.977Z M93.2641 687.229C97.2109 702.259 103.935 704.07 114.539 702.449L116.195 704.798C101.568 709.844 92.6784 702.416 90.5811 688.809L93.2641 687.229Z M132.402 676.219C130.618 669.429 127.579 668.61 122.789 669.342"
        fill="black" />


    <path id="28" fill-rule="evenodd" clip-rule="evenodd"
        d="M54.5229 671.216C60.9648 679.976 79.2201 681.715 91.4188 674.795C101.19 669.039 111.494 663.193 118.193 655.729C122.81 645.058 112.918 631.67 103.138 631.702C89.7857 633.097 77.4112 635.319 66.0011 641.106C55.649 648.123 48.6284 661.033 54.5229 671.216ZM58.3717 669.332C64.0196 677.013 80.0236 678.536 90.7189 672.47C99.2868 667.425 108.319 662.297 114.192 655.754C118.242 646.4 109.567 634.662 100.995 634.689C89.2875 635.912 78.4384 637.86 68.4351 642.934C59.3592 649.087 53.2045 660.404 58.3717 669.332Z M65.5377 648.73C66.0866 663.933 72.1295 667.072 82.6217 667.739L83.7004 670.331C68.6238 672.1 61.7161 663.135 62.6327 649.681L65.5377 648.73Z M105.787 648.829C105.539 641.96 102.809 640.543 98.0676 640.241"
        fill="black" />


    <path id="29" fill-rule="evenodd" clip-rule="evenodd"
        d="M34.7109 627.836C39.385 637.902 57.007 642.891 70.313 637.985C81.0123 633.841 92.2509 629.698 100.252 623.27C106.815 613.206 99.6231 597.816 90.0024 596.125C76.6065 595.194 64.0181 595.279 51.7023 599.169C40.194 604.496 30.8443 616.42 34.7109 627.836ZM38.8525 626.595C42.9505 635.419 58.3989 639.792 70.0653 635.492C79.4463 631.859 89.2985 628.225 96.3138 622.591C102.068 613.768 95.7636 600.275 87.3278 598.793C75.5839 597.977 64.5481 598.05 53.7493 601.461C43.6588 606.132 35.4627 616.585 38.8525 626.595Z M49.8021 606.859C47.4609 622.454 52.8092 626.717 62.9992 629.245L63.5698 632.078C48.4088 631.224 43.3152 620.87 46.765 607.317L49.8021 606.859Z M89.3605 614.05C90.4187 607.005 88.0026 605.078 83.3979 603.936"
        fill="black" />


    <path id="30" fill-rule="evenodd" clip-rule="evenodd"
        d="M60.8717 596.232C69.9394 593.19 76.3663 586.902 84.2601 582.542C88.8634 577.771 87.639 564.09 82.1491 559.591C83.9632 541.979 81.5852 535.634 67.6227 531.751C55.6187 529.284 40.5802 528.723 29.8482 530.313C16.3106 534.911 7.47032 551.982 8.12269 563.578C8.51492 580.716 17.1264 593.799 30.5332 597.653C38.6558 599.173 51.8692 599.375 60.8717 596.232ZM58.9404 592.125C66.3166 589.343 71.6119 583.931 79.872 580.322C85.2992 576.284 82.3806 564.499 78.5413 560.521C80.034 545.022 77.8944 538.474 65.2339 535.524C54.3658 533.352 41.6439 532.014 31.9961 534.364C18.7895 539.263 13.2464 552.822 12.8787 563.635C13.2233 578.716 20.801 590.227 32.5981 593.619C39.7455 594.957 51.0181 595.379 58.9404 592.125Z M49.4304 585.887C49.6183 582.655 53.8458 582.656 54.0351 586.328C54.2489 588.213 56.8692 587.602 56.7276 585.594C52.2973 577.467 53.2669 568.763 48.3899 562.317C50.6575 560.017 50.9885 551.474 51.698 544.546C51.3671 541.854 54.7746 544.64 55.4365 540.331C53.1512 538.195 50.2326 541.341 41.918 539.774C42.5323 541.878 43.9282 543.398 46.1005 544.036L46.456 558.057C44.0467 559.966 38.9436 559.306 39.2268 562.83C38.8019 566.893 43.4774 564.054 45.4631 566.061C47.5877 569.39 48.5792 574.921 48.8625 581.554C48.296 583.66 46.17 582.167 45.4631 584.418C45.3923 586.693 47.7294 588.459 49.4304 585.887Z"
        fill="black" />


    <path id="31" fill-rule="evenodd" clip-rule="evenodd"
        d="M54.5441 526.859C63.6118 524.137 70.0401 518.511 77.9339 514.611C82.5358 510.343 81.3128 498.104 75.8215 494.08C77.6356 478.324 75.259 472.648 61.2966 469.175C49.2925 466.968 34.2527 466.466 23.522 467.888C9.98442 472.001 1.14415 487.273 1.79652 497.646C2.18739 512.979 10.8002 524.682 24.2071 528.129C32.3296 529.491 45.5416 529.671 54.5441 526.859ZM52.6143 523.184C59.9905 520.695 65.2843 515.854 73.5458 512.624C78.973 509.013 76.0531 498.47 72.2151 494.912C73.7078 481.047 71.5682 475.189 58.9064 472.549C48.0395 470.607 35.3164 469.409 25.6699 471.512C12.4632 475.895 6.91881 488.025 6.55245 497.697C6.89702 511.188 14.4748 521.485 26.2718 524.519C33.4192 525.717 44.6919 526.095 52.6143 523.184Z M43.3591 517.271C43.547 514.379 47.7745 514.379 47.9638 517.664C48.1776 519.351 50.7979 518.805 50.6563 517.009C46.226 509.739 47.1957 501.951 42.3186 496.186C44.5862 494.127 44.9172 486.484 45.6267 480.288C45.2958 477.879 48.7033 480.371 49.3652 476.517C47.0799 474.606 44.1613 477.42 35.8467 476.018C36.461 477.901 37.8556 479.261 40.0279 479.831L40.3833 492.374C37.9741 494.082 32.8723 493.49 33.1556 496.644C32.7306 500.279 37.4061 497.739 39.3905 499.534C41.5164 502.512 42.5079 507.461 42.7912 513.394C42.2246 515.278 40.0987 513.942 39.3905 515.956C39.321 517.991 41.658 519.572 43.3591 517.271Z"
        fill="black" />


    <path id="32" fill-rule="evenodd" clip-rule="evenodd"
        d="M3.65332 438.323C5.12284 462.709 25.6281 467.386 38.8212 466.392C52.8 465.747 61.8691 462.215 71.7418 457.191C76.3778 455.239 76.9063 445.326 73.0275 443.573L72.9866 432.747C77.3952 431.419 76.3942 421.333 72.6884 419.407C60.5645 413.801 50.8457 404.213 34.6142 404.281C19.1509 405.508 3.68605 416.59 3.65332 438.323ZM7.61654 438.001C8.92535 459.711 27.1807 463.875 38.926 462.99C51.3713 462.416 59.4448 459.272 68.2333 454.799C72.108 452.936 72.8311 444.929 69.3786 443.37L69.493 432.479C73.4181 431.295 72.3763 422.876 69.0763 421.162C58.283 416.171 49.6307 407.635 35.1807 407.695C21.4143 408.788 7.64661 418.655 7.61654 438.001Z M42.2368 453.623C42.3961 450.994 44.9415 450.994 45.1009 453.979C45.8908 455.254 48.7209 454.325 48.0781 452.522C44.3205 445.914 44.9919 439.797 41.154 434.755C43.0771 432.884 43.3835 426.156 43.9855 420.524C43.7049 418.334 48.9484 419.484 48.2933 415.807C46.9845 412.722 42.3975 418.089 36.4731 415.695C36.992 417.407 37.7805 420.013 39.6232 420.532L39.626 430.647C37.5831 432.199 33.515 431.49 33.5804 434.874C33.6553 438.177 37.3597 436.988 39.0444 438.622C40.8463 441.327 40.9076 444.446 41.1473 449.84C40.6665 451.552 39.4707 450.597 38.8701 452.427C38.8102 454.277 40.7931 455.713 42.2368 453.623Z"
        fill="black" />


    <path id="-1" fill-rule="evenodd"
        d="M230.814 247.897C230.347 245.398 232.029 249.037 230.814 247.897C231.655 303.352 231.236 335.944 230.955 391.413C369.682 391.413 369.682 391.413 230.955 393.647C228.728 520.784 228.99 520.784 228.973 393.647C123 392.497 159.826 393.647 123 392.497C158.312 392.497 193.643 390.957 228.973 391.413C228.973 334.133 230.814 305.177 230.814 247.897Z"
        fill="#D3D3D3" fill-opacity="0.1" />


</svg>
