<svg width="852" height="862" viewBox="0 0 852 862" fill="none" xmlns="http://www.w3.org/2000/svg">


    <path id="11" fill-rule="evenodd" clip-rule="evenodd"
        d="M324.157 207.049C327.209 207.055 330.305 207.075 333.469 207.105C341.294 188.946 348.423 175.05 359.401 160.649C353.064 160.238 346.658 159.881 340.171 159.594C333.67 172.798 328.242 188.12 324.157 207.049Z"
      stroke="black"  stroke-width="2.55988"/>

    <path id="11" fill-rule="evenodd" clip-rule="evenodd"
        d="M152.844 176.141C141.144 180.243 151.209 225.459 162.282 223.112C181.853 219.798 202.71 215.933 221.168 213.622C228.973 193.904 233.507 177.217 235.347 162.458C205.009 165.157 174.239 170.551 152.844 176.141Z"
          stroke="black"  stroke-width="2.55988"/>

    <path id="113" fill-rule="evenodd" clip-rule="evenodd"
        d="M101.451 226.4L85.9258 221.566L90.8497 205.778C92.1234 208.147 93.3023 210.515 94.5764 212.884C108.665 207.031 119.735 201.966 141.377 200.514L141.493 206.947C128.222 208.543 114.309 211.392 97.7716 218.941L101.451 226.4Z"
          stroke="black"  stroke-width="2.55988" />

    <path id="11" fill-rule="evenodd" clip-rule="evenodd"
        d="M213.444 79.319C209.249 63.549 229.809 45.7841 247.639 50.8853C274.561 68.8342 282.294 97.2714 289.872 125.985C300.573 100.909 315.256 86.3161 330.781 74.7504C350.817 65.4595 373.417 114.379 359.111 129.335C342.256 151.406 329.003 177.078 321.749 219.549C318.11 249.576 316.069 282.803 328.831 325.229C317.689 299.995 292.163 286.952 259.24 293.5C227.207 300.972 198.522 326.893 201.058 371.153C195.851 330.171 201.793 261.532 220.814 214.52C246.651 149.77 237.422 117.619 213.444 79.319Z"
          stroke="black"  stroke-width="2.55988" />


    <path id="11" fill-rule="evenodd" clip-rule="evenodd"
        d="M315.771 328.685L328.83 325.229C317.689 299.995 292.163 286.953 259.24 293.5C227.206 300.972 198.521 326.893 201.058 371.153L219.02 364.688C218.627 337.475 236.167 317.746 258.072 310.181C285.43 302.882 307.593 309.945 315.771 328.685Z"
          stroke="#373435" stroke-width="2.55988" />

    <path id="11" fill-rule="evenodd" clip-rule="evenodd"
        d="M330.781 74.7503C350.816 65.4595 373.417 114.379 359.11 129.335C351.159 135.76 340.176 125.058 333.585 110.272C328.463 99.2836 323.273 81.9152 330.781 74.7503Z"
        stroke="#373435"   stroke-width="2.55988" />

    <path id="112" fill-rule="evenodd" clip-rule="evenodd" fill="#D9D9D9"
        d="M338.795 81.4371C347.809 77.0117 361.587 113.334 353.874 117.312C350.588 119.643 344.782 112.738 341.271 105.408C335.114 92.5232 334.97 83.7872 338.795 81.4371Z"
        stroke="black"  stroke-width="2.55988" />


    <path id="111" fill-rule="evenodd" clip-rule="evenodd"
        d="M269.979 269.292L256.478 278.69L246.949 265.28L254.92 266.544C258.416 242.699 262.187 220.953 268.067 198.326L273.682 200.237C267.734 226.445 265.59 245.668 262.129 267.801L269.979 269.292Z"
        stroke="black"  stroke-width="2.55988" />


    <path id="18" fill-rule="evenodd" clip-rule="evenodd"
        d="M319.147 271.784C321.75 211.803 353.178 165.244 373.43 142.968C388.386 125.972 400.671 110.084 394.739 85.3565C390.72 67.852 376.602 51.1189 367.502 41.8575C361.089 31.8603 380.659 7.49294 396.292 13.6365C408.74 20.0893 426.291 47.5956 434.838 77.975C434.876 52.9739 435.754 38.7541 438.632 12.4615C439.073 -2.51974 478.417 -2.92983 476.953 14.1252C477.674 21.7693 474.457 38.1105 476.753 57.7613C479.234 38.3724 487.82 24.1013 502.505 12.7827C512.282 4.76788 534.446 25.2522 527.87 38.6536C517.599 50.3391 510.74 68.2695 519.578 100.536C552.436 133.362 569.544 178.136 560.248 251.97C551.175 258.245 543.112 261.742 535.462 250.246C526.987 237.345 522.002 223.048 508.78 213.636C496.688 203.626 463.4 239.046 468.301 249.194C474.884 257.324 475.046 272.572 470.043 278.608C447.574 301.239 419.867 334.107 411.672 353.356C404.026 367.976 396.07 384.084 387.944 401.609L339.975 346.958C323.371 324.219 321.1 291.44 319.147 271.784Z"
          stroke="black"  stroke-width="2.55988" />

    <path id="188" fill-rule="evenodd" clip-rule="evenodd"
        d="M400.11 70.1933L404.015 54.2498L420.036 58.2394C417.738 59.6363 415.439 61.0336 413.141 62.4305C425.582 87.9072 431.149 106.383 430.215 137.36H424.308C423.501 103.429 417.444 86.1221 407.261 65.9406L400.11 70.1933Z"
        stroke="black" stroke-width="2.55988" />
    <path id="188" fill-rule="evenodd" clip-rule="evenodd"
        d="M469.244 42.9493L458.044 30.7422L445.989 42.4432C448.663 42.7339 451.573 42.5071 454.247 42.7977C453.887 64.6105 454.326 83.504 459.975 103.913H467.103C460.63 80.0253 461.119 62.864 461.015 42.9606L469.244 42.9493Z"
        stroke="black"  stroke-width="2.55988" />
    <path id="188" fill-rule="evenodd" clip-rule="evenodd"
        d="M512.722 48.2388L507.915 32.7053L492.118 37.6009C494.485 38.8792 496.851 40.0622 499.218 41.34C493.34 55.418 488.255 66.4796 486.765 88.1184L493.197 88.2462C494.817 74.9782 497.691 61.0699 505.269 44.5462L512.722 48.2388Z"
        stroke="black"  stroke-width="2.55988" />
    <path id="188" fill-rule="evenodd" clip-rule="evenodd"
        d="M440.465 178.177L440.001 161.768L423.499 162.3C425.452 164.149 427.406 165.998 429.358 167.847C382.876 224.892 383.745 285.401 402.266 321.728L409.295 320.186C384.468 265.047 407.158 208.538 434.369 172.515L440.465 178.177Z"
        stroke="black"  stroke-width="2.55988"/>


    <path id="19" fill-rule="evenodd" clip-rule="evenodd"
        d="M356.494 474.953L368.434 479.4C376.63 460.15 400.334 448.109 428.868 458.98C459.236 473.734 463.43 492.668 459.818 513.126C464.766 514.304 470.347 515.759 475.295 516.936C480.132 492.159 471.876 462.352 432.911 445.953C395.425 435.012 369.009 446.408 356.494 474.953Z"
          stroke="black"  stroke-width="2.55988"/>

    <path id="19" fill-rule="evenodd" clip-rule="evenodd"
        d="M356.494 474.953C375.405 427.31 394.333 386.51 411.672 353.357C419.868 334.107 447.575 301.24 470.044 278.609C475.046 272.572 474.884 257.324 468.302 249.194C463.4 239.047 496.688 203.627 508.781 213.637C522.002 223.048 526.987 237.346 535.463 250.247C546.597 266.981 558.609 251.945 573.34 242.816C611.21 216.255 645.59 207.28 669.642 203.052C686.236 197.652 697.386 238.731 685.924 243.799C658.786 249.694 634.998 258.661 611.628 273.21C573.202 296.79 543.988 332.235 522.73 376.613C500.08 415.824 483.719 460.067 475.295 516.936C480.132 492.159 471.876 462.352 432.911 445.953C395.425 435.011 369.009 446.407 356.494 474.953Z"
          stroke="black"  stroke-width="2.55988" />


    <path id="199" fill-rule="evenodd" clip-rule="evenodd"
        d="M500.73 324.509L498.976 308.39L482.539 310.141C484.622 311.842 486.93 313.738 489.014 315.439C472.591 335.325 441.608 380.885 429.731 426.375L436.03 427.878C448.907 385.447 475.073 344.42 494.477 319.562L500.73 324.509Z"
        stroke="black"  stroke-width="2.55988" />
    <path id="199" fill-rule="evenodd" clip-rule="evenodd"
        d="M741.51 225.051L754.622 215.436L744.836 202.104C744.401 204.757 744.056 207.381 743.62 210.035C728.395 209.076 716.279 207.882 695.34 213.54L697.32 219.661C710.389 216.86 724.474 215.034 742.566 216.801L741.51 225.051Z"
          stroke="black"  stroke-width="2.55988"/>


    <path id="20"
        d="M632.921 313.9C633.159 314.167 633.437 314.437 633.667 314.712M549.324 387.364L550.636 389.583L552.405 383.949C553.689 361.157 575.381 319.002 606.662 316.022C641.668 315.813 629.883 372.067 625.29 385.371L625.151 385.846C620.768 404.888 617.635 424.429 615.002 445.971C613.083 475.668 619.457 494.515 628.582 510.053C624.812 509.177 618.922 511.009 617.057 514.104C618.191 501.022 614.551 481.732 603.651 465.252C594.613 453.094 584.442 442.21 573.563 432.176C571.21 427.774 558.609 402.998 549.324 387.364Z"
        stroke="black"  stroke-width="2.55988"/>

    <path id="200" fill-rule="evenodd" clip-rule="evenodd"
        d="M608.511 420.682L599.415 434.224L586.42 425.377L594.148 423.821C589.621 401.551 589.557 387.137 592.475 370.886L598.827 372.178C596.36 391.754 596.935 401.257 600.944 421.996L608.511 420.682Z"
        stroke="#373435" stroke-width="2.55988" />


    <path id="16" fill-rule="evenodd" clip-rule="evenodd"
        d="M177.89 746.789C180.722 765.388 246.81 765.052 246.235 753.407C247.917 731.04 246.204 703.844 246.883 688.931C246.926 686.498 247.014 683.958 247.142 681.333C239.618 669.491 233.107 657.501 227.815 645.51C212.259 618.582 201.464 590.525 194.51 562.575C186.459 594.576 182.066 634.625 180.119 666.723C176.784 695.428 176.795 718.862 177.89 746.789Z"
          stroke="black"  stroke-width="2.55988"/>
    <path id="166" fill-rule="evenodd" clip-rule="evenodd"
        d="M225.333 672.999L214.147 660.938L201.977 672.008L210.034 672.473C208.364 696.515 207.409 718.565 208.328 741.925L214.222 741.256C214 714.383 216.006 695.144 217.344 672.782L225.333 672.999Z"
        stroke="black"  stroke-width="2.55988"/>


    <path id="1000" fill-rule="evenodd" clip-rule="evenodd"
        d="M573.88 855.913C617.505 844.473 691.196 728.81 693.916 620.126C699.674 508.822 662.372 450.919 650.477 425.946C645.236 415.745 640.66 406.929 638.927 398.614L638.752 398.609C638.157 395.471 637.829 391.721 638.275 388.079L625.316 385.354C625.26 385.522 625.205 385.69 625.151 385.845C620.768 404.887 617.635 424.429 615.002 445.971C613.082 475.668 619.457 494.514 628.581 510.052C624.811 509.176 618.922 511.008 617.056 514.103C618.191 501.021 614.551 481.732 603.651 465.251C594.612 453.094 584.441 442.21 573.562 432.176L573.477 432.018C578.752 442.606 583.532 453.044 587.401 462.929C577.492 447.511 551.341 434.677 520.578 449.342C500.057 458.192 482.187 481.021 476.949 506.53L477.071 505.822C476.554 509.087 476.071 512.412 475.626 515.804C475.67 515.245 475.722 514.688 475.78 514.131C475.636 515.072 475.476 516.008 475.295 516.936C475.503 515.531 475.717 514.137 475.935 512.748C476.02 512.047 476.115 511.346 476.219 510.648C478.54 487.284 468.63 460.985 432.911 445.953C395.425 435.011 369.009 446.407 356.495 474.953C367.066 448.319 377.643 423.825 387.945 401.609L339.976 346.958C335.13 340.323 331.507 332.831 328.754 325.061C317.574 299.938 292.089 286.968 259.24 293.501C227.271 300.958 198.639 326.791 201.046 370.891L201.062 371.134C177.375 439.861 172.537 549.82 227.815 645.51C280.351 764.54 451.186 883.67 573.88 855.913ZM552.403 383.947L547.344 383.91C548.437 385.81 549.536 387.727 550.636 389.657L552.403 383.947Z"
        stroke-width="2.55988" />


    <path id="14" fill-rule="evenodd" clip-rule="evenodd"
        d="M374.029 510.329C366.58 496.644 367.217 487.917 368.435 479.4C376.631 460.15 400.335 448.108 428.869 458.98C459.237 473.734 463.43 492.668 459.819 513.126C456.741 525.416 447.986 533.021 440.296 536.025C427.219 539.972 418.922 536.86 410.512 529.64C406.41 530.207 403.353 526.556 402.864 524.205C394.11 528.188 383.732 524.801 374.029 510.329Z"
        stroke="black"  stroke-width="2.55988"/>

    <path id="14"
        d="M405.365 528.017C407.634 529.894 410.383 530.244 411.505 528.8C412.627 527.356 411.698 524.665 409.429 522.788C407.16 520.912 404.411 520.562 403.288 522.006C402.166 523.45 403.096 526.141 405.365 528.017Z"
        stroke="black" fill="#D9D9D9" stroke-width="2.55988" />


    <path id="23" fill-rule="evenodd" clip-rule="evenodd"
        d="M616.67 514.822C618.496 510.696 625.606 509.033 628.88 510.128C634.642 512.261 633.707 503.081 632.584 491.494C629.319 468.615 644.827 462.944 652.735 474.704C669.391 528.056 666.714 561.409 664.703 614.761C660.716 665.1 648.728 702.438 629.408 731.776C603.286 777.905 572.498 784.033 569.377 739.162C562.313 694.494 558.583 660.66 538.516 618.824C526.945 593.352 513.804 572.431 498.557 550.133C498.066 549.044 497.136 547.279 499.501 548.137C508.579 550.97 516.906 553.125 526.06 552.425C537.87 551.899 550.438 543.016 540.076 533.169C542.9 534.637 547.68 533.511 549.735 530.712C546.644 540.366 554.437 543.813 565.146 542.741C576.864 540.872 585.693 535.215 593.863 519.473C598.59 510.146 601.815 495.42 609.847 505.393C611.925 507.891 614.886 512.082 616.67 514.822Z"
          stroke="black" stroke-width="2.55988" />


    <path id="233" fill-rule="evenodd" clip-rule="evenodd"
        d="M571.954 575.767L556.866 568.305L549.663 582.592L557.527 580.44C568.829 609.081 585.618 630.728 610.434 627.362C636.702 619.241 641.344 576.44 635.799 532.477L629.137 533.232C635.075 579.314 627.623 617.187 607.379 620.405C593.314 622.726 576.095 610.034 563.885 578.184L571.954 575.767Z"
        stroke="black" stroke-width="2.55988" />


    <path id="17" fill-rule="evenodd" clip-rule="evenodd"
        d="M443.461 546.642C454.102 543.811 458.704 546.739 459.373 559.216C465.072 593.97 476.105 614.919 487.766 643.712C511.881 687.399 523.369 725.352 528.344 764.645C538.814 839.265 457.609 812.396 435.068 804.011C396.473 787.417 364.467 761.724 332.461 725.991C306.014 696.561 279.951 658.913 272.957 623.523C269.403 604.235 271.185 581.197 291.927 583.1C307.653 586.117 329.883 600.056 345.701 610.523C344.313 606.574 347.645 603.928 349.919 604.695C344.644 579.654 347.782 555.413 350.038 539.602C351.084 525.005 355.206 518.47 367.708 522.012C374.286 530.618 379.167 536.464 391.262 537.326C397.54 536.865 402.669 533.802 402.944 524.549C403.895 527.49 407.239 530.191 410.537 529.615C408.317 532.107 405.629 534.552 406.16 539.477C410.659 554.574 432.151 549.941 443.461 546.642Z"
          stroke="black" stroke-width="2.55988" />

    <path id="177" fill-rule="evenodd" clip-rule="evenodd"
        d="M405.113 595.705L411.439 580.665L426.443 587.109L419.095 590.149C472.998 730.027 411.909 734.639 357.388 644.458L362.57 639.992C385.055 677.78 424.646 718.588 432.899 686.243C436.21 660.234 425.755 625.694 412.856 592.86L405.113 595.705Z"
        stroke="black"  stroke-width="2.55988"/>


    <path id="22"
        d="M513.356 535.374C502.317 532.386 492.334 526.395 490.224 516.345C491.306 495.581 504.683 469.85 534.545 459.773C568.001 451.697 580.77 471.29 584.666 487.827C586.031 500.226 586.705 507.084 578.132 517.41C573.54 523.809 560.91 532.915 549.906 530.467C547.528 534.038 541.8 534.603 539.598 532.857C534.894 537.401 525.334 538.247 513.356 535.374Z M545.671 533.411C548.877 532.442 550.94 530.057 550.278 528.084C549.616 526.112 546.48 525.298 543.273 526.268C540.066 527.237 538.004 529.622 538.666 531.595C539.328 533.567 542.464 534.381 545.671 533.411Z"
        stroke="black" stroke-width="2.55988" />


    <path id="21"
        d="M625.993 518.964C630.182 517.62 632.772 514.628 631.778 512.282C630.785 509.935 626.584 509.122 622.395 510.466C618.206 511.81 615.616 514.802 616.61 517.149C617.603 519.495 621.804 520.308 625.993 518.964Z"
        stroke="black" stroke-width="2.55988"/>


    <path id="15"
        d="M349.059 612.93C351.096 612.93 352.747 611.064 352.747 608.762C352.747 606.46 351.096 604.594 349.059 604.594C347.023 604.594 345.372 606.46 345.372 608.762C345.372 611.064 347.023 612.93 349.059 612.93Z"
        stroke="black"  stroke-width="2.55988"/>


    <path id="12" fill-rule="evenodd" clip-rule="evenodd"
        d="M181.769 261.178C169.921 261.324 164.528 289.088 173.762 291.237C189.895 293.754 189.196 299.997 201.225 300.75L199.879 319.406C186.318 316.721 173.803 317.928 158.795 320.352C145.626 320.299 145.194 351.39 154.502 351.764C170.676 350.976 186.302 354.65 199.909 359.214C197.697 324.472 201.399 292.421 206.599 264.225C185.372 262.183 199.607 263.846 181.769 261.178Z"
          stroke="black" stroke-width="2.55988" />

    <path id="12" fill-rule="evenodd" clip-rule="evenodd"
        d="M475.655 517.091L490.224 516.345C491.306 495.581 504.684 469.85 534.546 459.773C568.002 451.697 580.771 471.29 584.667 487.827L596.817 484.188C590.668 456.658 566.172 435.187 529.869 445.734C495.706 456.231 476.758 489.936 475.655 517.091Z"
          stroke="black"  stroke-width="2.55988"/>


    <path id="12" fill-rule="evenodd" clip-rule="evenodd"
        d="M547.344 383.91L552.404 383.949C553.689 361.157 575.381 319.002 606.662 316.022C641.668 315.813 629.883 372.066 625.29 385.371L638.315 388.087C648.212 365.17 652.813 299.145 601.953 302.906C573.47 307.714 547.387 343.296 539.929 371.075L547.344 383.91Z"
          stroke="black" stroke-width="2.55988" />


    <path id="122" fill-rule="evenodd" clip-rule="evenodd"
        d="M716.947 323.591L703.835 313.976L713.621 300.643C714.056 303.297 714.401 305.921 714.837 308.575C730.062 307.616 742.178 306.422 763.117 312.08L761.137 318.201C748.067 315.4 733.983 313.574 715.891 315.341L716.947 323.591Z"
          stroke="black"  stroke-width="2.55988"/>


    <path id="122" fill-rule="evenodd" clip-rule="evenodd"
        d="M722.279 352.379L710.667 363.761L722.249 375.567C722.302 372.878 722.271 370.232 722.325 367.543C737.531 366.327 749.694 365.786 769.616 357.209L766.786 351.431C754.248 356.062 740.566 359.872 722.406 360.695L722.279 352.379Z"
          stroke="black"  stroke-width="2.55988"/>


    <path id="122" fill-rule="evenodd" clip-rule="evenodd"
        d="M144.879 286.214L157.991 276.599L148.205 263.266C147.77 265.92 147.425 268.544 146.989 271.198C131.764 270.239 119.648 269.045 98.709 274.703L100.689 280.824C113.759 278.023 127.843 276.197 145.935 277.964L144.879 286.214Z"
          stroke="black"  stroke-width="2.55988"/>

    <path id="122" fill-rule="evenodd" clip-rule="evenodd"
        d="M129.352 320.099L140.964 331.481L129.382 343.287C129.329 340.598 129.36 337.952 129.306 335.263C114.099 334.047 101.937 333.506 82.0146 324.929L84.8448 319.151C97.383 323.782 111.065 327.592 129.225 328.415L129.352 320.099Z"
          stroke="black" stroke-width="2.55988" />

    <path id="12" fill-rule="evenodd" clip-rule="evenodd"
        d="M701.271 384.814C709.359 378.222 704.546 352.07 693.433 353.143C680.791 360.563 656.3 364.643 644.272 363.89L645.554 331.443C659.115 326.339 677.277 326.183 689.869 326.714C701.231 323.784 698.33 296.607 687.985 295.283C675.57 293.386 657.787 292.591 635.945 293.428C631.561 284.466 627.127 277.09 619.524 268.426C565.025 300.054 540.025 339.681 511.526 397.809C495.64 430.044 482.679 466.819 475.626 515.804C477.937 486.698 497.596 459.254 520.578 449.342C551.341 434.677 575.73 446.574 587.389 462.941C575.949 433.707 556.527 399.592 539.92 371.096C550.49 333.381 583.193 302.09 605.934 302.688C650.642 302.995 649.071 360.08 638.303 387.86C637.817 391.571 638.145 395.408 638.752 398.61C659.442 399.31 684.239 390.203 701.271 384.814Z"
          stroke="black" stroke-width="2.55988" />


    <path id="13" fill-rule="evenodd" clip-rule="evenodd"
        d="M315.82 328.512C318.018 358.648 335.294 372.26 343.284 380.412C363.02 395.762 368.124 412.765 366.401 440.871C362.585 464.019 352.639 483.84 342.345 504.537C320.668 548.554 337.333 592.4 348.78 604.592C347.456 604.681 345.259 606.138 345.36 608.947C320.773 570.544 290.724 552.757 250.275 582.509C234.713 593.803 220.519 544.987 209.54 521.205C203.208 503.384 200.805 477.581 201.907 457.839C202.944 425.455 214.982 393.738 219.02 364.687C218.628 337.474 236.167 317.746 258.072 310.18C285.43 302.881 307.642 309.771 315.82 328.512Z"
        stroke="black" stroke-width="2.55988" />

    <path id="13" fill-rule="evenodd" clip-rule="evenodd"
        d="M315.82 328.512C316.048 331.643 316.541 335.514 317.192 338.475C309.05 341.945 294.077 339.144 275.202 350.977C263.277 358.34 253.303 374.066 249.462 387.701C245.166 402.481 225.957 395.937 216.086 381.03C217.256 375.5 218.274 370.048 219.02 364.687C218.627 337.475 236.167 317.746 258.072 310.18C285.43 302.881 307.642 309.772 315.82 328.512Z"
        fill="#D9D9D9" stroke="black"  stroke-width="2.55988"/>

    <path id="13" fill-rule="evenodd" clip-rule="evenodd" fill="#D9D9D9"
        d="M220.117 525.532C215.29 504.397 243.208 514.572 252.601 529.706C257.776 538.186 268.561 554.494 266.169 560.756C260.429 569.28 249.731 577.02 244.252 571.715C234.641 560.843 223.857 539.535 220.117 525.532Z"
        stroke="black"  stroke-width="2.55988"/>


    <path id="133" fill-rule="evenodd" clip-rule="evenodd"
        d="M310.034 507.799L304.242 523.489L288.971 517.349L296.395 514.005C284.562 487.603 265.211 432.514 267.058 385.534L273.431 385.322C273.176 432.203 287.051 476.784 302.717 511.284L310.034 507.799Z"
        stroke="black"  stroke-width="2.55988"/>


</svg>
